<?xml version="1.0" encoding="UTF-8"?>
<svg xmlns="http://www.w3.org/2000/svg" width="529" height="81">
   <defs>
      <style type="text/css">
    @namespace "http://www.w3.org/2000/svg";
    .line                 {fill: none; stroke: #332900; stroke-width: 1;}
    .bold-line            {stroke: #141000; shape-rendering: crispEdges; stroke-width: 2;}
    .thin-line            {stroke: #1F1800; shape-rendering: crispEdges}
    .filled               {fill: #332900; stroke: none;}
    text.terminal         {font-family: Verdana, Sans-serif;
                            font-size: 12px;
                            fill: #141000;
                            font-weight: bold;
                          }
    text.nonterminal      {font-family: Verdana, Sans-serif;
                            font-size: 12px;
                            fill: #1A1400;
                            font-weight: normal;
                          }
    text.regexp           {font-family: Verdana, Sans-serif;
                            font-size: 12px;
                            fill: #1F1800;
                            font-weight: normal;
                          }
    rect, circle, polygon {fill: #332900; stroke: #332900;}
    rect.terminal         {fill: #FFDB4D; stroke: #332900; stroke-width: 1;}
    rect.nonterminal      {fill: #FFEC9E; stroke: #332900; stroke-width: 1;}
    rect.text             {fill: none; stroke: none;}
    polygon.regexp        {fill: #FFF4C7; stroke: #332900; stroke-width: 1;}
  </style>
   </defs>
   <polygon points="9 17 1 13 1 21"/>
   <polygon points="17 17 9 13 9 21"/>
   <a xmlns:xlink="http://www.w3.org/1999/xlink"
      xlink:href="#ident"
      xlink:title="ident">
      <rect x="31" y="3" width="52" height="32"/>
      <rect x="29" y="1" width="52" height="32" class="nonterminal"/>
      <text class="nonterminal" x="39" y="21">ident</text>
   </a>
   <rect x="103" y="3" width="30" height="32" rx="10"/>
   <rect x="101"
         y="1"
         width="30"
         height="32"
         class="terminal"
         rx="10"/>
   <text class="terminal" x="111" y="21">=</text>
   <a xmlns:xlink="http://www.w3.org/1999/xlink"
      xlink:href="#expr"
      xlink:title="expr">
      <rect x="173" y="3" width="48" height="32"/>
      <rect x="171" y="1" width="48" height="32" class="nonterminal"/>
      <text class="nonterminal" x="181" y="21">expr</text>
   </a>
   <rect x="173" y="47" width="54" height="32" rx="10"/>
   <rect x="171"
         y="45"
         width="54"
         height="32"
         class="terminal"
         rx="10"/>
   <text class="terminal" x="181" y="65">input</text>
   <rect x="247" y="47" width="26" height="32" rx="10"/>
   <rect x="245"
         y="45"
         width="26"
         height="32"
         class="terminal"
         rx="10"/>
   <text class="terminal" x="255" y="65">(</text>
   <a xmlns:xlink="http://www.w3.org/1999/xlink"
      xlink:href="#STRING_LIT_TOKEN"
      xlink:title="STRING_LIT_TOKEN">
      <rect x="293" y="47" width="142" height="32"/>
      <rect x="291" y="45" width="142" height="32" class="nonterminal"/>
      <text class="nonterminal" x="301" y="65">STRING_LIT_TOKEN</text>
   </a>
   <rect x="455" y="47" width="26" height="32" rx="10"/>
   <rect x="453"
         y="45"
         width="26"
         height="32"
         class="terminal"
         rx="10"/>
   <text class="terminal" x="463" y="65">)</text>
   <path class="line"
         d="m17 17 h2 m0 0 h10 m52 0 h10 m0 0 h10 m30 0 h10 m20 0 h10 m48 0 h10 m0 0 h260 m-348 0 h20 m328 0 h20 m-368 0 q10 0 10 10 m348 0 q0 -10 10 -10 m-358 10 v24 m348 0 v-24 m-348 24 q0 10 10 10 m328 0 q10 0 10 -10 m-338 10 h10 m54 0 h10 m0 0 h10 m26 0 h10 m0 0 h10 m142 0 h10 m0 0 h10 m26 0 h10 m23 -44 h-3"/>
   <polygon points="519 17 527 13 527 21"/>
   <polygon points="519 17 511 13 511 21"/>
</svg>
