<?xml version="1.0" encoding="UTF-8"?>
<svg xmlns="http://www.w3.org/2000/svg" width="579" height="37">
   <defs>
      <style type="text/css">
    @namespace "http://www.w3.org/2000/svg";
    .line                 {fill: none; stroke: #332900; stroke-width: 1;}
    .bold-line            {stroke: #141000; shape-rendering: crispEdges; stroke-width: 2;}
    .thin-line            {stroke: #1F1800; shape-rendering: crispEdges}
    .filled               {fill: #332900; stroke: none;}
    text.terminal         {font-family: Verdana, Sans-serif;
                            font-size: 12px;
                            fill: #141000;
                            font-weight: bold;
                          }
    text.nonterminal      {font-family: Verdana, Sans-serif;
                            font-size: 12px;
                            fill: #1A1400;
                            font-weight: normal;
                          }
    text.regexp           {font-family: Verdana, Sans-serif;
                            font-size: 12px;
                            fill: #1F1800;
                            font-weight: normal;
                          }
    rect, circle, polygon {fill: #332900; stroke: #332900;}
    rect.terminal         {fill: #FFDB4D; stroke: #332900; stroke-width: 1;}
    rect.nonterminal      {fill: #FFEC9E; stroke: #332900; stroke-width: 1;}
    rect.text             {fill: none; stroke: none;}
    polygon.regexp        {fill: #FFF4C7; stroke: #332900; stroke-width: 1;}
  </style>
   </defs>
   <polygon points="9 17 1 13 1 21"/>
   <polygon points="17 17 9 13 9 21"/>
   <rect x="31" y="3" width="38" height="32" rx="10"/>
   <rect x="29"
         y="1"
         width="38"
         height="32"
         class="terminal"
         rx="10"/>
   <text class="terminal" x="39" y="21">for</text>
   <rect x="89" y="3" width="26" height="32" rx="10"/>
   <rect x="87"
         y="1"
         width="26"
         height="32"
         class="terminal"
         rx="10"/>
   <text class="terminal" x="97" y="21">(</text>
   <a xmlns:xlink="http://www.w3.org/1999/xlink"
      xlink:href="#for-init"
      xlink:title="for-init">
      <rect x="135" y="3" width="62" height="32"/>
      <rect x="133" y="1" width="62" height="32" class="nonterminal"/>
      <text class="nonterminal" x="143" y="21">for-init</text>
   </a>
   <rect x="217" y="3" width="24" height="32" rx="10"/>
   <rect x="215"
         y="1"
         width="24"
         height="32"
         class="terminal"
         rx="10"/>
   <text class="terminal" x="225" y="21">;</text>
   <a xmlns:xlink="http://www.w3.org/1999/xlink"
      xlink:href="#expr"
      xlink:title="expr">
      <rect x="261" y="3" width="48" height="32"/>
      <rect x="259" y="1" width="48" height="32" class="nonterminal"/>
      <text class="nonterminal" x="269" y="21">expr</text>
   </a>
   <rect x="329" y="3" width="24" height="32" rx="10"/>
   <rect x="327"
         y="1"
         width="24"
         height="32"
         class="terminal"
         rx="10"/>
   <text class="terminal" x="337" y="21">;</text>
   <a xmlns:xlink="http://www.w3.org/1999/xlink"
      xlink:href="#for-iter"
      xlink:title="for-iter">
      <rect x="373" y="3" width="64" height="32"/>
      <rect x="371" y="1" width="64" height="32" class="nonterminal"/>
      <text class="nonterminal" x="381" y="21">for-iter</text>
   </a>
   <rect x="457" y="3" width="26" height="32" rx="10"/>
   <rect x="455"
         y="1"
         width="26"
         height="32"
         class="terminal"
         rx="10"/>
   <text class="terminal" x="465" y="21">)</text>
   <a xmlns:xlink="http://www.w3.org/1999/xlink"
      xlink:href="#stmt"
      xlink:title="stmt">
      <rect x="503" y="3" width="48" height="32"/>
      <rect x="501" y="1" width="48" height="32" class="nonterminal"/>
      <text class="nonterminal" x="511" y="21">stmt</text>
   </a>
   <path class="line"
         d="m17 17 h2 m0 0 h10 m38 0 h10 m0 0 h10 m26 0 h10 m0 0 h10 m62 0 h10 m0 0 h10 m24 0 h10 m0 0 h10 m48 0 h10 m0 0 h10 m24 0 h10 m0 0 h10 m64 0 h10 m0 0 h10 m26 0 h10 m0 0 h10 m48 0 h10 m3 0 h-3"/>
   <polygon points="569 17 577 13 577 21"/>
   <polygon points="569 17 561 13 561 21"/>
</svg>
