<?xml version="1.0" encoding="UTF-8"?>
<svg xmlns="http://www.w3.org/2000/svg" width="529" height="113">
   <defs>
      <style type="text/css">
    @namespace "http://www.w3.org/2000/svg";
    .line                 {fill: none; stroke: #332900; stroke-width: 1;}
    .bold-line            {stroke: #141000; shape-rendering: crispEdges; stroke-width: 2;}
    .thin-line            {stroke: #1F1800; shape-rendering: crispEdges}
    .filled               {fill: #332900; stroke: none;}
    text.terminal         {font-family: Verdana, Sans-serif;
                            font-size: 12px;
                            fill: #141000;
                            font-weight: bold;
                          }
    text.nonterminal      {font-family: Verdana, Sans-serif;
                            font-size: 12px;
                            fill: #1A1400;
                            font-weight: normal;
                          }
    text.regexp           {font-family: Verdana, Sans-serif;
                            font-size: 12px;
                            fill: #1F1800;
                            font-weight: normal;
                          }
    rect, circle, polygon {fill: #332900; stroke: #332900;}
    rect.terminal         {fill: #FFDB4D; stroke: #332900; stroke-width: 1;}
    rect.nonterminal      {fill: #FFEC9E; stroke: #332900; stroke-width: 1;}
    rect.text             {fill: none; stroke: none;}
    polygon.regexp        {fill: #FFF4C7; stroke: #332900; stroke-width: 1;}
  </style>
   </defs>
   <polygon points="9 61 1 57 1 65"/>
   <polygon points="17 61 9 57 9 65"/>
   <rect x="31" y="47" width="28" height="32" rx="10"/>
   <rect x="29"
         y="45"
         width="28"
         height="32"
         class="terminal"
         rx="10"/>
   <text class="terminal" x="39" y="65">if</text>
   <rect x="99" y="47" width="26" height="32" rx="10"/>
   <rect x="97"
         y="45"
         width="26"
         height="32"
         class="terminal"
         rx="10"/>
   <text class="terminal" x="107" y="65">(</text>
   <a xmlns:xlink="http://www.w3.org/1999/xlink"
      xlink:href="#expr"
      xlink:title="expr">
      <rect x="145" y="47" width="48" height="32"/>
      <rect x="143" y="45" width="48" height="32" class="nonterminal"/>
      <text class="nonterminal" x="153" y="65">expr</text>
   </a>
   <rect x="213" y="47" width="26" height="32" rx="10"/>
   <rect x="211"
         y="45"
         width="26"
         height="32"
         class="terminal"
         rx="10"/>
   <text class="terminal" x="221" y="65">)</text>
   <a xmlns:xlink="http://www.w3.org/1999/xlink"
      xlink:href="#stmt"
      xlink:title="stmt">
      <rect x="259" y="47" width="48" height="32"/>
      <rect x="257" y="45" width="48" height="32" class="nonterminal"/>
      <text class="nonterminal" x="267" y="65">stmt</text>
   </a>
   <rect x="99" y="3" width="40" height="32" rx="10"/>
   <rect x="97"
         y="1"
         width="40"
         height="32"
         class="terminal"
         rx="10"/>
   <text class="terminal" x="107" y="21">elif</text>
   <rect x="367" y="79" width="46" height="32" rx="10"/>
   <rect x="365"
         y="77"
         width="46"
         height="32"
         class="terminal"
         rx="10"/>
   <text class="terminal" x="375" y="97">else</text>
   <a xmlns:xlink="http://www.w3.org/1999/xlink"
      xlink:href="#stmt"
      xlink:title="stmt">
      <rect x="433" y="79" width="48" height="32"/>
      <rect x="431" y="77" width="48" height="32" class="nonterminal"/>
      <text class="nonterminal" x="441" y="97">stmt</text>
   </a>
   <path class="line"
         d="m17 61 h2 m0 0 h10 m28 0 h10 m20 0 h10 m26 0 h10 m0 0 h10 m48 0 h10 m0 0 h10 m26 0 h10 m0 0 h10 m48 0 h10 m-248 0 l20 0 m-1 0 q-9 0 -9 -10 l0 -24 q0 -10 10 -10 m228 44 l20 0 m-20 0 q10 0 10 -10 l0 -24 q0 -10 -10 -10 m-228 0 h10 m40 0 h10 m0 0 h168 m40 44 h10 m0 0 h124 m-154 0 h20 m134 0 h20 m-174 0 q10 0 10 10 m154 0 q0 -10 10 -10 m-164 10 v12 m154 0 v-12 m-154 12 q0 10 10 10 m134 0 q10 0 10 -10 m-144 10 h10 m46 0 h10 m0 0 h10 m48 0 h10 m23 -32 h-3"/>
   <polygon points="519 61 527 57 527 65"/>
   <polygon points="519 61 511 57 511 65"/>
</svg>
