<?xml version="1.0" encoding="UTF-8"?>
<svg xmlns="http://www.w3.org/2000/svg" width="387" height="213">
   <defs>
      <style type="text/css">
    @namespace "http://www.w3.org/2000/svg";
    .line                 {fill: none; stroke: #332900; stroke-width: 1;}
    .bold-line            {stroke: #141000; shape-rendering: crispEdges; stroke-width: 2;}
    .thin-line            {stroke: #1F1800; shape-rendering: crispEdges}
    .filled               {fill: #332900; stroke: none;}
    text.terminal         {font-family: Verdana, Sans-serif;
                            font-size: 12px;
                            fill: #141000;
                            font-weight: bold;
                          }
    text.nonterminal      {font-family: Verdana, Sans-serif;
                            font-size: 12px;
                            fill: #1A1400;
                            font-weight: normal;
                          }
    text.regexp           {font-family: Verdana, Sans-serif;
                            font-size: 12px;
                            fill: #1F1800;
                            font-weight: normal;
                          }
    rect, circle, polygon {fill: #332900; stroke: #332900;}
    rect.terminal         {fill: #FFDB4D; stroke: #332900; stroke-width: 1;}
    rect.nonterminal      {fill: #FFEC9E; stroke: #332900; stroke-width: 1;}
    rect.text             {fill: none; stroke: none;}
    polygon.regexp        {fill: #FFF4C7; stroke: #332900; stroke-width: 1;}
  </style>
   </defs>
   <polygon points="9 61 1 57 1 65"/>
   <polygon points="17 61 9 57 9 65"/>
   <a xmlns:xlink="http://www.w3.org/1999/xlink"
      xlink:href="#mult-expr"
      xlink:title="mult-expr">
      <rect x="31" y="47" width="82" height="32"/>
      <rect x="29" y="45" width="82" height="32" class="nonterminal"/>
      <text class="nonterminal" x="39" y="65">mult-expr</text>
   </a>
   <rect x="153" y="47" width="28" height="32" rx="10"/>
   <rect x="151"
         y="45"
         width="28"
         height="32"
         class="terminal"
         rx="10"/>
   <text class="terminal" x="161" y="65">*</text>
   <rect x="153" y="91" width="28" height="32" rx="10"/>
   <rect x="151"
         y="89"
         width="28"
         height="32"
         class="terminal"
         rx="10"/>
   <text class="terminal" x="161" y="109">/</text>
   <rect x="153" y="135" width="34" height="32" rx="10"/>
   <rect x="151"
         y="133"
         width="34"
         height="32"
         class="terminal"
         rx="10"/>
   <text class="terminal" x="161" y="153">%</text>
   <rect x="153" y="179" width="36" height="32" rx="10"/>
   <rect x="151"
         y="177"
         width="36"
         height="32"
         class="terminal"
         rx="10"/>
   <text class="terminal" x="161" y="197">//</text>
   <a xmlns:xlink="http://www.w3.org/1999/xlink"
      xlink:href="#unary-expr"
      xlink:title="unary-expr">
      <rect x="249" y="47" width="90" height="32"/>
      <rect x="247" y="45" width="90" height="32" class="nonterminal"/>
      <text class="nonterminal" x="257" y="65">unary-expr</text>
   </a>
   <rect x="249" y="3" width="38" height="32" rx="10"/>
   <rect x="247"
         y="1"
         width="38"
         height="32"
         class="terminal"
         rx="10"/>
   <text class="terminal" x="257" y="21">**</text>
   <path class="line"
         d="m17 61 h2 m0 0 h10 m82 0 h10 m20 0 h10 m28 0 h10 m0 0 h8 m-76 0 h20 m56 0 h20 m-96 0 q10 0 10 10 m76 0 q0 -10 10 -10 m-86 10 v24 m76 0 v-24 m-76 24 q0 10 10 10 m56 0 q10 0 10 -10 m-66 10 h10 m28 0 h10 m0 0 h8 m-66 -10 v20 m76 0 v-20 m-76 20 v24 m76 0 v-24 m-76 24 q0 10 10 10 m56 0 q10 0 10 -10 m-66 10 h10 m34 0 h10 m0 0 h2 m-66 -10 v20 m76 0 v-20 m-76 20 v24 m76 0 v-24 m-76 24 q0 10 10 10 m56 0 q10 0 10 -10 m-66 10 h10 m36 0 h10 m40 -132 h10 m90 0 h10 m-130 0 l20 0 m-1 0 q-9 0 -9 -10 l0 -24 q0 -10 10 -10 m110 44 l20 0 m-20 0 q10 0 10 -10 l0 -24 q0 -10 -10 -10 m-110 0 h10 m38 0 h10 m0 0 h52 m23 44 h-3"/>
   <polygon points="377 61 385 57 385 65"/>
   <polygon points="377 61 369 57 369 65"/>
</svg>
