<?xml version="1.0" encoding="UTF-8"?>
<svg xmlns="http://www.w3.org/2000/svg" width="395" height="377">
   <defs>
      <style type="text/css">
    @namespace "http://www.w3.org/2000/svg";
    .line                 {fill: none; stroke: #332900; stroke-width: 1;}
    .bold-line            {stroke: #141000; shape-rendering: crispEdges; stroke-width: 2;}
    .thin-line            {stroke: #1F1800; shape-rendering: crispEdges}
    .filled               {fill: #332900; stroke: none;}
    text.terminal         {font-family: Verdana, Sans-serif;
                            font-size: 12px;
                            fill: #141000;
                            font-weight: bold;
                          }
    text.nonterminal      {font-family: Verdana, Sans-serif;
                            font-size: 12px;
                            fill: #1A1400;
                            font-weight: normal;
                          }
    text.regexp           {font-family: Verdana, Sans-serif;
                            font-size: 12px;
                            fill: #1F1800;
                            font-weight: normal;
                          }
    rect, circle, polygon {fill: #332900; stroke: #332900;}
    rect.terminal         {fill: #FFDB4D; stroke: #332900; stroke-width: 1;}
    rect.nonterminal      {fill: #FFEC9E; stroke: #332900; stroke-width: 1;}
    rect.text             {fill: none; stroke: none;}
    polygon.regexp        {fill: #FFF4C7; stroke: #332900; stroke-width: 1;}
  </style>
   </defs>
   <polygon points="9 17 1 13 1 21"/>
   <polygon points="17 17 9 13 9 21"/>
   <a xmlns:xlink="http://www.w3.org/1999/xlink"
      xlink:href="#decl"
      xlink:title="decl">
      <rect x="71" y="35" width="46" height="32"/>
      <rect x="69" y="33" width="46" height="32" class="nonterminal"/>
      <text class="nonterminal" x="79" y="53">decl</text>
   </a>
   <a xmlns:xlink="http://www.w3.org/1999/xlink"
      xlink:href="#expr"
      xlink:title="expr">
      <rect x="71" y="79" width="48" height="32"/>
      <rect x="69" y="77" width="48" height="32" class="nonterminal"/>
      <text class="nonterminal" x="79" y="97">expr</text>
   </a>
   <a xmlns:xlink="http://www.w3.org/1999/xlink"
      xlink:href="#assign"
      xlink:title="assign">
      <rect x="71" y="123" width="60" height="32"/>
      <rect x="69" y="121" width="60" height="32" class="nonterminal"/>
      <text class="nonterminal" x="79" y="141">assign</text>
   </a>
   <rect x="71" y="167" width="52" height="32" rx="10"/>
   <rect x="69"
         y="165"
         width="52"
         height="32"
         class="terminal"
         rx="10"/>
   <text class="terminal" x="79" y="185">print</text>
   <rect x="143" y="167" width="26" height="32" rx="10"/>
   <rect x="141"
         y="165"
         width="26"
         height="32"
         class="terminal"
         rx="10"/>
   <text class="terminal" x="151" y="185">(</text>
   <a xmlns:xlink="http://www.w3.org/1999/xlink"
      xlink:href="#expr"
      xlink:title="expr">
      <rect x="189" y="167" width="48" height="32"/>
      <rect x="187" y="165" width="48" height="32" class="nonterminal"/>
      <text class="nonterminal" x="197" y="185">expr</text>
   </a>
   <rect x="257" y="167" width="26" height="32" rx="10"/>
   <rect x="255"
         y="165"
         width="26"
         height="32"
         class="terminal"
         rx="10"/>
   <text class="terminal" x="265" y="185">)</text>
   <rect x="323" y="3" width="24" height="32" rx="10"/>
   <rect x="321"
         y="1"
         width="24"
         height="32"
         class="terminal"
         rx="10"/>
   <text class="terminal" x="331" y="21">;</text>
   <a xmlns:xlink="http://www.w3.org/1999/xlink"
      xlink:href="#if-stmt"
      xlink:title="if-stmt">
      <rect x="51" y="211" width="62" height="32"/>
      <rect x="49" y="209" width="62" height="32" class="nonterminal"/>
      <text class="nonterminal" x="59" y="229">if-stmt</text>
   </a>
   <a xmlns:xlink="http://www.w3.org/1999/xlink"
      xlink:href="#while-stmt"
      xlink:title="while-stmt">
      <rect x="51" y="255" width="86" height="32"/>
      <rect x="49" y="253" width="86" height="32" class="nonterminal"/>
      <text class="nonterminal" x="59" y="273">while-stmt</text>
   </a>
   <a xmlns:xlink="http://www.w3.org/1999/xlink"
      xlink:href="#for-stmt"
      xlink:title="for-stmt">
      <rect x="51" y="299" width="70" height="32"/>
      <rect x="49" y="297" width="70" height="32" class="nonterminal"/>
      <text class="nonterminal" x="59" y="317">for-stmt</text>
   </a>
   <a xmlns:xlink="http://www.w3.org/1999/xlink"
      xlink:href="#stmt-block"
      xlink:title="stmt-block">
      <rect x="51" y="343" width="86" height="32"/>
      <rect x="49" y="341" width="86" height="32" class="nonterminal"/>
      <text class="nonterminal" x="59" y="361">stmt-block</text>
   </a>
   <path class="line"
         d="m17 17 h2 m40 0 h10 m0 0 h222 m-252 0 h20 m232 0 h20 m-272 0 q10 0 10 10 m252 0 q0 -10 10 -10 m-262 10 v12 m252 0 v-12 m-252 12 q0 10 10 10 m232 0 q10 0 10 -10 m-242 10 h10 m46 0 h10 m0 0 h166 m-242 -10 v20 m252 0 v-20 m-252 20 v24 m252 0 v-24 m-252 24 q0 10 10 10 m232 0 q10 0 10 -10 m-242 10 h10 m48 0 h10 m0 0 h164 m-242 -10 v20 m252 0 v-20 m-252 20 v24 m252 0 v-24 m-252 24 q0 10 10 10 m232 0 q10 0 10 -10 m-242 10 h10 m60 0 h10 m0 0 h152 m-242 -10 v20 m252 0 v-20 m-252 20 v24 m252 0 v-24 m-252 24 q0 10 10 10 m232 0 q10 0 10 -10 m-242 10 h10 m52 0 h10 m0 0 h10 m26 0 h10 m0 0 h10 m48 0 h10 m0 0 h10 m26 0 h10 m20 -164 h10 m24 0 h10 m-336 0 h20 m316 0 h20 m-356 0 q10 0 10 10 m336 0 q0 -10 10 -10 m-346 10 v188 m336 0 v-188 m-336 188 q0 10 10 10 m316 0 q10 0 10 -10 m-326 10 h10 m62 0 h10 m0 0 h234 m-326 -10 v20 m336 0 v-20 m-336 20 v24 m336 0 v-24 m-336 24 q0 10 10 10 m316 0 q10 0 10 -10 m-326 10 h10 m86 0 h10 m0 0 h210 m-326 -10 v20 m336 0 v-20 m-336 20 v24 m336 0 v-24 m-336 24 q0 10 10 10 m316 0 q10 0 10 -10 m-326 10 h10 m70 0 h10 m0 0 h226 m-326 -10 v20 m336 0 v-20 m-336 20 v24 m336 0 v-24 m-336 24 q0 10 10 10 m316 0 q10 0 10 -10 m-326 10 h10 m86 0 h10 m0 0 h210 m23 -340 h-3"/>
   <polygon points="385 17 393 13 393 21"/>
   <polygon points="385 17 377 13 377 21"/>
</svg>
